  <svg xmlns="http://www.w3.org/2000/svg" width="18" height="18" viewBox="0 0 15.503 15.503">
      <g id="Group_3" data-name="Group 3" transform="translate(0.75 0.75)" >
        <path id="Path_5" data-name="Path 5" d="M47.9,3.3V1.2a.7.7,0,0,0-.7-.7h-7a.7.7,0,0,0-.7.7V11a.7.7,0,0,0,.7.7h4.907" transform="translate(-39.5 -0.5)" fill="none" stroke="#f8f8f2" stroke-miterlimit="10" stroke-width="1.5" />
        <path id="Path_6" data-name="Path 6" d="M47.5,5.2V15a.7.7,0,0,0,.7.7h7a.7.7,0,0,0,.7-.7V7.59A.7.7,0,0,0,55.7,7.1l-2.39-2.39a.7.7,0,0,0-.5-.205H48.2A.7.7,0,0,0,47.5,5.2Z" transform="translate(-41.899 -1.7)" fill="none" stroke="#f8f8f2" stroke-miterlimit="10" stroke-width="1.5" />
      </g>
    </svg>