<svg xmlns="http://www.w3.org/2000/svg" width="24" height="24" viewBox="0 0 24 24">
  <g id="Group_848" data-name="Group 848" transform="translate(1 1)">
    <path id="Path_25" data-name="Path 25" d="M2,8.58Q2,2,8.6,2h8.8Q24,2,24,8.58v5.484q0,6.58-6.6,6.58h-.55a1.116,1.116,0,0,0-.88.439l-1.65,2.193a1.566,1.566,0,0,1-2.64,0l-1.65-2.193a1.245,1.245,0,0,0-.88-.439H8.6c-4.4,0-6.6-1.1-6.6-6.58v-1.1" transform="translate(-2 -2)" fill="none" stroke="#282a36" stroke-linecap="round" stroke-linejoin="round" stroke-miterlimit="10" stroke-width="2"/>
    <path id="Path_26" data-name="Path 26" d="M15.976,8h1.008M7,8h5.5M7,13.93h5.991" transform="translate(-0.992 -1.597)" fill="none" stroke="#292b36" stroke-linecap="round" stroke-linejoin="round" stroke-width="2"/>
  </g>
</svg>
